# xmcd CD database file
#
# Track frame offsets:
#	150
#	22987
#	42112
#
# Disc length: 862 seconds
#
# Revision: 1
# Processed by: cddbd v1.5.1PL2 Copyright (c) Steve Scherf et al.
# Submitted via: CDex 1.60beta1-cs1
#
DISCID=17035c03
DTITLE=篠原利佳 - あなたになりたい
DYEAR=1994
DGENRE=JPop
TTITLE0=あなたになりたい
TTITLE1=STYLE
TTITLE2=あなたになりたい (オリジナル・カラオケ)
EXTD=YEAR: 1994
EXTT0=
EXTT1=
EXTT2=
PLAYORDER=
